<svg width="31" height="40" viewBox="0 0 31 40" fill="none" xmlns="http://www.w3.org/2000/svg">
<path d="M27.534 11.6789C28.5226 10.7023 28.5226 9.11639 27.534 8.13983C26.5454 7.16327 24.9399 7.16327 23.9513 8.13983L15.6231 16.3742L7.28711 8.14764C6.29849 7.17108 4.69297 7.17108 3.70435 8.14764C2.71574 9.12421 2.71574 10.7101 3.70435 11.6867L12.0404 19.9133L3.71226 28.1476C2.72365 29.1242 2.72365 30.7101 3.71226 31.6867C4.70088 32.6633 6.3064 32.6633 7.29502 31.6867L15.6231 23.4523L23.9592 31.6789C24.9478 32.6555 26.5533 32.6555 27.5419 31.6789C28.5306 30.7023 28.5306 29.1164 27.5419 28.1398L19.2059 19.9133L27.534 11.6789Z" fill="#565963"/>
</svg>
