<svg width="32" height="28" viewBox="0 0 32 28" fill="none" xmlns="http://www.w3.org/2000/svg">
<path d="M0 2.75C0 1.50547 1.02143 0.5 2.28571 0.5H29.7143C30.9786 0.5 32 1.50547 32 2.75C32 3.99453 30.9786 5 29.7143 5H2.28571C1.02143 5 0 3.99453 0 2.75ZM0 14C0 12.7555 1.02143 11.75 2.28571 11.75H29.7143C30.9786 11.75 32 12.7555 32 14C32 15.2445 30.9786 16.25 29.7143 16.25H2.28571C1.02143 16.25 0 15.2445 0 14ZM32 25.25C32 26.4945 30.9786 27.5 29.7143 27.5H2.28571C1.02143 27.5 0 26.4945 0 25.25C0 24.0055 1.02143 23 2.28571 23H29.7143C30.9786 23 32 24.0055 32 25.25Z" fill="#565963"/>
</svg>
