<svg width="43" height="43" viewBox="0 0 43 43" fill="none" xmlns="http://www.w3.org/2000/svg">
<path d="M19.1111 0C24.1797 0 29.0407 2.01349 32.6247 5.59752C36.2087 9.18154 38.2222 14.0425 38.2222 19.1111C38.2222 24.1797 36.2087 29.0407 32.6247 32.6247C29.0407 36.2087 24.1797 38.2222 19.1111 38.2222C14.0425 38.2222 9.18154 36.2087 5.59752 32.6247C2.01349 29.0407 0 24.1797 0 19.1111C0 14.0425 2.01349 9.18154 5.59752 5.59752C9.18154 2.01349 14.0425 0 19.1111 0ZM17.3194 8.95833V19.1111C17.3194 19.7083 17.6181 20.2682 18.1182 20.6042L25.2849 25.3819C26.1061 25.9344 27.2184 25.7104 27.7708 24.8818C28.3233 24.0531 28.0993 22.9483 27.2707 22.3958L20.9028 18.1556V8.95833C20.9028 7.96545 20.104 7.16667 19.1111 7.16667C18.1182 7.16667 17.3194 7.96545 17.3194 8.95833Z" fill="#565963"/>
</svg>
