<svg width="27" height="35" viewBox="0 0 27 35" fill="none" xmlns="http://www.w3.org/2000/svg">
<g clip-path="url(#clip0_106_86)">
<path d="M14.7451 34.125C18.252 29.7363 26.25 19.0996 26.25 13.125C26.25 5.87891 20.3711 0 13.125 0C5.87891 0 0 5.87891 0 13.125C0 19.0996 7.99805 29.7363 11.5049 34.125C12.3457 35.1709 13.9043 35.1709 14.7451 34.125ZM13.125 8.75C14.2853 8.75 15.3981 9.21094 16.2186 10.0314C17.0391 10.8519 17.5 11.9647 17.5 13.125C17.5 14.2853 17.0391 15.3981 16.2186 16.2186C15.3981 17.0391 14.2853 17.5 13.125 17.5C11.9647 17.5 10.8519 17.0391 10.0314 16.2186C9.21094 15.3981 8.75 14.2853 8.75 13.125C8.75 11.9647 9.21094 10.8519 10.0314 10.0314C10.8519 9.21094 11.9647 8.75 13.125 8.75Z" fill="#565963"/>
</g>
<defs>
<clipPath id="clip0_106_86">
<rect width="26.25" height="35" fill="white"/>
</clipPath>
</defs>
</svg>
