<svg width="30" height="30" viewBox="0 0 30 30" fill="none" xmlns="http://www.w3.org/2000/svg">
<path d="M12.5 5C15.8152 5 18.9946 6.31696 21.3388 8.66117C23.683 11.0054 25 14.1848 25 17.5C25 20.8152 23.683 23.9946 21.3388 26.3388C18.9946 28.683 15.8152 30 12.5 30C9.18479 30 6.00537 28.683 3.66117 26.3388C1.31696 23.9946 0 20.8152 0 17.5C0 14.1848 1.31696 11.0054 3.66117 8.66117C6.00537 6.31696 9.18479 5 12.5 5ZM12.5 23.75C13.1494 23.75 13.6719 23.2275 13.6719 22.5781V17.1094C13.6719 16.46 13.1494 15.9375 12.5 15.9375C11.8506 15.9375 11.3281 16.46 11.3281 17.1094V22.5781C11.3281 23.2275 11.8506 23.75 12.5 23.75ZM10.9375 12.8125C10.9375 13.2269 11.1021 13.6243 11.3951 13.9174C11.6882 14.2104 12.0856 14.375 12.5 14.375C12.9144 14.375 13.3118 14.2104 13.6049 13.9174C13.8979 13.6243 14.0625 13.2269 14.0625 12.8125C14.0625 12.3981 13.8979 12.0007 13.6049 11.7076C13.3118 11.4146 12.9144 11.25 12.5 11.25C12.0856 11.25 11.6882 11.4146 11.3951 11.7076C11.1021 12.0007 10.9375 12.3981 10.9375 12.8125Z" fill="#3D8E93"/>
</svg>
